<?xml version="1.0" encoding="utf-8"?>
<!-- Generator: Adobe Illustrator 18.1.1, SVG Export Plug-In . SVG Version: 6.00 Build 0)  -->
<svg version="1.1" id="Layer_1" xmlns="http://www.w3.org/2000/svg" xmlns:xlink="http://www.w3.org/1999/xlink" x="0px" y="0px"
	 width="112.5px" height="45.4px" viewBox="-343 278.6 112.5 45.4" enable-background="new -343 278.6 112.5 45.4"
	 xml:space="preserve">
<path fill="#FFFFFF" d="M-337.5,296.1L-337.5,296.1v4.7v2.2v4.7l0,0c0,1.5-1.2,2.8-2.8,2.8s-2.8-1.2-2.8-2.8l0,0V303v-2.2v-4.7l0,0
	c0-1.5,1.2-2.8,2.8-2.8S-337.5,294.6-337.5,296.1z M-304.9,296.1c0-1.5-1.2-2.8-2.8-2.8s-2.8,1.2-2.8,2.8l0,0v4.7v2.2v4.7l0,0
	c0,1.5,1.2,2.8,2.8,2.8s2.8-1.2,2.8-2.8l0,0V303v-2.2V296.1L-304.9,296.1z M-336.4,292.9c0-0.1,0-0.3,0-0.4c0-0.8,0.1-1.7,0.3-2.5
	c0.8-3.1,3-5.7,5.9-7.2l-1.9-3.5c-0.1-0.2,0-0.5,0.2-0.6c0.2-0.1,0.5,0,0.6,0.2l1.9,3.6c1.7-0.7,3.5-1.1,5.5-1.1
	c2,0,3.8,0.4,5.4,1.1l1.9-3.6c0.1-0.2,0.4-0.3,0.6-0.2c0.2,0.1,0.3,0.4,0.2,0.6l-1.9,3.5c3.1,1.6,5.4,4.4,6.1,7.6
	c0.1,0.4,0.1,0.7,0.2,1.1v1.3H-336.4z M-319.4,287.2c0,0.7,0.5,1.2,1.2,1.2c0.7,0,1.2-0.5,1.2-1.2c0-0.7-0.5-1.2-1.2-1.2
	C-318.9,286.1-319.4,286.6-319.4,287.2z M-330.8,287.2c0,0.7,0.5,1.2,1.2,1.2c0.7,0,1.2-0.5,1.2-1.2c0-0.7-0.5-1.2-1.2-1.2
	C-330.3,286.1-330.8,286.6-330.8,287.2z M-336.3,293.8h-0.1v18.3c0,1.5,1.2,2.8,2.8,2.8h2.4v1.7v4.7l0,0c0,1.5,1.2,2.8,2.8,2.8
	s2.8-1.2,2.8-2.8l0,0v-4.7v-1.7h3.7v1.7v4.7l0,0c0,1.5,1.2,2.8,2.8,2.8s2.8-1.2,2.8-2.8l0,0v-4.7v-1.7h2.3c1.5,0,2.8-1.2,2.8-2.8
	v-18.3h0H-336.3z"/>
<path fill="#FFFFFF" d="M-288.1,310.9c-2.7,0-5.2-1.3-6.6-3.5c-0.1-0.1-0.2-0.3-0.2-0.7v-7.6c0-0.4,0.1-0.6,0.2-0.7
	c1.4-2.1,3.9-3.4,6.6-3.4c4.3,0,7.8,3.6,7.8,8C-280.2,307.3-283.8,310.9-288.1,310.9L-288.1,310.9L-288.1,310.9z M-294.9,319.9v-8.8
	c1.8,1.8,4.2,2.9,7,2.9c6,0,10.8-4.9,10.8-11c0-6.1-4.8-11.1-10.8-11.1c-2.8,0-5.3,1.1-7,2.8v-2.4h-3.2v27.6H-294.9L-294.9,319.9z
	 M-263.8,310.8c-4.3,0-7.9-3.6-7.9-8c0-4.4,3.5-7.9,7.9-7.9c2.7,0,5.3,1.3,6.6,3.5c0.1,0.1,0.2,0.3,0.2,0.7v7.5
	c0,0.4-0.1,0.6-0.2,0.7C-258.6,309.5-261.1,310.8-263.8,310.8L-263.8,310.8L-263.8,310.8z M-253.8,313.5v-21.2h-3.2v2.4
	c-1.8-1.8-4.2-2.8-7-2.8c-6.1,0-10.8,4.9-10.8,11c0,6.1,4.8,11.1,10.8,11.1c2.8,0,5.3-1.1,7-2.8v2.4H-253.8L-253.8,313.5z
	 M-230.7,292.3h-3.6l-7.8,18.6h1.6l-7.8-18.6h-3.7l8.8,20.4l-0.7,1.6c-0.8,1.8-2.3,2.5-3.7,2.5h-1.2v3.2h1.1c3.2,0,5.7-1.7,7-4.9
	L-230.7,292.3L-230.7,292.3z"/>
</svg>
