<?xml version="1.0" encoding="utf-8"?>
<!-- Generator: Adobe Illustrator 18.1.1, SVG Export Plug-In . SVG Version: 6.00 Build 0)  -->
<svg version="1.1" id="Layer_1" xmlns="http://www.w3.org/2000/svg" xmlns:xlink="http://www.w3.org/1999/xlink" x="0px" y="0px"
	 width="112.5px" height="45.4px" viewBox="-344 278.6 112.5 45.4" enable-background="new -344 278.6 112.5 45.4"
	 xml:space="preserve">
<g id="XMLID_1_">
	<g id="XMLID_44_">
		<path id="XMLID_46_" fill="#FFFFFF" d="M-323.4,284.6c1.2-1.6,2.1-3.6,1.9-5.8c-1.8,0.1-4,1.2-5.3,2.8c-1.2,1.3-2.2,3.5-1.9,5.5
			C-326.7,287.3-324.7,286.1-323.4,284.6"/>
		<path id="XMLID_45_" fill="#FFFFFF" d="M-321.6,287.6c-3-0.2-5.5,1.7-6.9,1.7c-1.4,0-3.6-1.6-5.9-1.6c-3.1,0-5.9,1.8-7.4,4.5
			c-3.2,5.5-0.8,13.6,2.3,18.1c1.5,2.2,3.3,4.6,5.7,4.6c2.3-0.1,3.1-1.5,5.9-1.5c2.7,0,3.5,1.5,5.9,1.4c2.5,0,4-2.2,5.5-4.4
			c1.7-2.5,2.4-5,2.5-5.1c0,0-4.8-1.9-4.8-7.3c0-4.6,3.7-6.7,3.9-6.9C-317.1,288-320.4,287.7-321.6,287.6"/>
	</g>
	<g id="XMLID_35_">
		<path id="XMLID_41_" fill="#FFFFFF" d="M-292,281.4c6.4,0,10.9,4.4,10.9,10.9c0,6.5-4.6,11-11.1,11h-7.1v11.3h-5.2v-33.2H-292z
			 M-299.3,298.9h5.9c4.5,0,7-2.4,7-6.6c0-4.2-2.6-6.6-7-6.6h-5.9V298.9z"/>
		<path id="XMLID_38_" fill="#FFFFFF" d="M-279.8,307.7c0-4.3,3.2-6.7,9.2-7.1l6.4-0.4v-1.8c0-2.7-1.8-4.2-4.9-4.2
			c-2.6,0-4.5,1.3-4.9,3.4h-4.6c0.1-4.3,4.2-7.4,9.7-7.4c5.9,0,9.7,3.1,9.7,7.9v16.5h-4.8v-4h-0.1c-1.4,2.6-4.4,4.2-7.6,4.2
			C-276.4,314.9-279.8,312-279.8,307.7z M-264.1,305.6v-1.9l-5.7,0.4c-3.2,0.2-4.9,1.4-4.9,3.5c0,2,1.7,3.3,4.5,3.3
			C-266.8,310.9-264.1,308.7-264.1,305.6z"/>
		<path id="XMLID_36_" fill="#FFFFFF" d="M-254.8,323.5v-4c0.3,0,1.1,0.1,1.5,0.1c2.3,0,3.6-1,4.4-3.5l0.5-1.5l-8.7-24.2h5.4
			l6.1,19.6h0.1l6.1-19.6h5.2l-9,25.4c-2.1,5.8-4.4,7.7-9.5,7.7C-253.2,323.6-254.5,323.6-254.8,323.5z"/>
	</g>
</g>
</svg>
