<?xml version="1.0" encoding="utf-8"?>
<!-- Generator: Adobe Illustrator 18.1.1, SVG Export Plug-In . SVG Version: 6.00 Build 0)  -->
<svg version="1.1" id="Layer_1" xmlns="http://www.w3.org/2000/svg" xmlns:xlink="http://www.w3.org/1999/xlink" x="0px" y="0px"
	 width="134.7px" height="45.4px" viewBox="-344 278.6 134.7 45.4" enable-background="new -344 278.6 134.7 45.4"
	 xml:space="preserve">
<g id="XMLID_1_">
	<g id="XMLID_35_">
		<path id="XMLID_41_" fill="#FFFFFF" d="M-273.3,281.4c6.4,0,10.9,4.4,10.9,10.9c0,6.5-4.6,11-11.1,11h-7.1v11.3h-5.2v-33.2H-273.3
			z M-280.6,298.9h5.9c4.5,0,7-2.4,7-6.6c0-4.2-2.6-6.6-7-6.6h-5.9V298.9z"/>
		<path id="XMLID_38_" fill="#FFFFFF" d="M-261.1,307.7c0-4.3,3.2-6.7,9.2-7.1l6.4-0.4v-1.8c0-2.7-1.8-4.2-4.9-4.2
			c-2.6,0-4.5,1.3-4.9,3.4h-4.6c0.1-4.3,4.2-7.4,9.7-7.4c5.9,0,9.7,3.1,9.7,7.9v16.5h-4.8v-4h-0.1c-1.4,2.6-4.4,4.2-7.6,4.2
			C-257.8,314.9-261.1,312-261.1,307.7z M-245.5,305.6v-1.9l-5.7,0.4c-3.2,0.2-4.9,1.4-4.9,3.5c0,2,1.7,3.3,4.5,3.3
			C-248.1,310.9-245.5,308.7-245.5,305.6z"/>
		<path id="XMLID_36_" fill="#FFFFFF" d="M-236.1,323.5v-4c0.3,0,1.1,0.1,1.5,0.1c2.3,0,3.6-1,4.4-3.5l0.5-1.5l-8.7-24.2h5.4
			l6.1,19.6h0.1l6.1-19.6h5.2l-9,25.4c-2.1,5.8-4.4,7.7-9.5,7.7C-234.5,323.6-235.8,323.6-236.1,323.5z"/>
	</g>
</g>
<g id="logo">
	<path id="logo-ne" fill="#FFFFFF" d="M-327.8,278.7c-0.9,0-1.6,0.7-1.6,1.6v11.2h29.5l-13.4-12.8L-327.8,278.7"/>
	<path id="logo-se" fill="#FFFFFF" d="M-298.8,294.9c0-0.9-0.7-1.6-1.6-1.6h-11.2v29.5l12.8-13.5L-298.8,294.9"/>
	<path id="logo-sw" fill="#FFFFFF" d="M-315,323.9c0.9,0,1.6-0.7,1.6-1.6v-11.2h-29.5l13.4,12.8L-315,323.9"/>
	<path id="logo-nw" fill="#FFFFFF" d="M-344,307.7c0,0.9,0.7,1.6,1.6,1.6h11.2v-29.5l-12.8,13.4L-344,307.7"/>
</g>
</svg>
