<?xml version="1.0" encoding="utf-8"?>
<!-- Generator: Adobe Illustrator 18.1.1, SVG Export Plug-In . SVG Version: 6.00 Build 0)  -->
<svg version="1.1" id="Layer_1" xmlns="http://www.w3.org/2000/svg" xmlns:xlink="http://www.w3.org/1999/xlink" x="0px" y="0px"
	 width="87.9px" height="23.4px" viewBox="-355 289.6 87.9 23.4" enable-background="new -355 289.6 87.9 23.4"
	 xml:space="preserve">
<path fill="#253B80" d="M-344.5,289.6h-6.8c-0.5,0-0.9,0.3-0.9,0.8l-2.8,17.5c-0.1,0.3,0.2,0.7,0.6,0.7h3.3c0.5,0,0.9-0.3,0.9-0.8
	l0.7-4.7c0.1-0.5,0.5-0.8,0.9-0.8h2.2c4.5,0,7.1-2.2,7.8-6.5c0.3-1.9,0-3.4-0.9-4.4C-340.5,290.2-342.2,289.6-344.5,289.6z
	 M-343.7,296.1c-0.4,2.5-2.2,2.5-4.1,2.5h-1l0.7-4.6c0-0.3,0.3-0.5,0.6-0.5h0.5c1.2,0,2.4,0,3,0.7
	C-343.7,294.6-343.6,295.1-343.7,296.1z"/>
<path fill="#253B80" d="M-324,296h-3.3c-0.3,0-0.5,0.2-0.6,0.5l-0.1,0.9l-0.2-0.3c-0.7-1-2.3-1.4-3.9-1.4c-3.6,0-6.7,2.7-7.3,6.6
	c-0.3,1.9,0.1,3.8,1.2,5c1,1.2,2.4,1.7,4.1,1.7c2.9,0,4.5-1.9,4.5-1.9l-0.1,0.9c-0.1,0.3,0.2,0.7,0.6,0.7h3c0.5,0,0.9-0.3,0.9-0.8
	l1.8-11.2C-323.4,296.2-323.7,296-324,296z M-328.6,302.2c-0.3,1.9-1.8,3.1-3.7,3.1c-1,0-1.7-0.3-2.2-0.9s-0.7-1.4-0.5-2.3
	c0.3-1.9,1.8-3.2,3.7-3.2c0.9,0,1.7,0.3,2.2,0.9C-328.7,300.6-328.5,301.4-328.6,302.2z"/>
<path fill="#253B80" d="M-306.6,296h-3.3c-0.3,0-0.6,0.2-0.8,0.4l-4.5,6.7l-1.9-6.4c-0.1-0.4-0.5-0.7-0.9-0.7h-3.2
	c-0.4,0-0.7,0.4-0.5,0.8l3.6,10.6l-3.4,4.8c-0.3,0.4,0,0.9,0.5,0.9h3.3c0.3,0,0.6-0.2,0.8-0.4l10.9-15.8
	C-305.9,296.5-306.1,296-306.6,296z"/>
<path fill="#179BD7" d="M-295.7,289.6h-6.8c-0.5,0-0.9,0.3-0.9,0.8l-2.8,17.5c-0.1,0.3,0.2,0.7,0.6,0.7h3.5c0.3,0,0.6-0.2,0.7-0.6
	l0.8-5c0.1-0.5,0.5-0.8,0.9-0.8h2.2c4.5,0,7.1-2.2,7.8-6.5c0.3-1.9,0-3.4-0.9-4.4C-291.7,290.2-293.4,289.6-295.7,289.6z
	 M-294.9,296.1c-0.4,2.5-2.2,2.5-4.1,2.5h-1l0.7-4.6c0-0.3,0.3-0.5,0.6-0.5h0.5c1.2,0,2.4,0,3,0.7
	C-294.9,294.6-294.8,295.1-294.9,296.1z"/>
<path fill="#179BD7" d="M-275.3,296h-3.3c-0.3,0-0.5,0.2-0.6,0.5l-0.1,0.9l-0.2-0.3c-0.7-1-2.3-1.4-3.9-1.4c-3.6,0-6.7,2.7-7.3,6.6
	c-0.3,1.9,0.1,3.8,1.2,5c1,1.2,2.4,1.7,4.1,1.7c2.9,0,4.5-1.9,4.5-1.9l-0.1,0.9c-0.1,0.3,0.2,0.7,0.6,0.7h2.9c0.5,0,0.9-0.3,0.9-0.8
	l1.8-11.2C-274.6,296.2-274.9,296-275.3,296z M-279.8,302.2c-0.3,1.9-1.8,3.1-3.7,3.1c-0.9,0-1.7-0.3-2.2-0.9s-0.7-1.4-0.5-2.3
	c0.3-1.9,1.8-3.2,3.7-3.2c0.9,0,1.7,0.3,2.2,0.9C-279.9,300.6-279.7,301.4-279.8,302.2z"/>
<path fill="#179BD7" d="M-271.4,290.1l-2.8,17.9c-0.1,0.3,0.2,0.7,0.6,0.7h2.8c0.5,0,0.9-0.3,0.9-0.8l2.8-17.5
	c0.1-0.3-0.2-0.7-0.6-0.7h-3.2C-271.1,289.6-271.4,289.9-271.4,290.1z"/>
</svg>
