<?xml version="1.0" encoding="utf-8"?>
<!-- Generator: Adobe Illustrator 18.1.1, SVG Export Plug-In . SVG Version: 6.00 Build 0)  -->
<svg version="1.1" id="Layer_1" xmlns="http://www.w3.org/2000/svg" xmlns:xlink="http://www.w3.org/1999/xlink" x="0px" y="0px"
	 width="56.3px" height="15px" viewBox="-339.2 290.5 56.3 15" enable-background="new -339.2 290.5 56.3 15" xml:space="preserve">
<g>
	<g>
		<g>
			<path fill="#FFFFFF" d="M-301.2,290.5h-4.4c-0.3,0-0.6,0.2-0.6,0.5l-1.8,11.2c0,0.2,0.1,0.4,0.4,0.4h2.2c0.2,0,0.4-0.2,0.4-0.4
				l0.5-3.2c0-0.3,0.3-0.5,0.6-0.5h1.4c2.9,0,4.5-1.4,5-4.2c0.2-1.2,0-2.2-0.6-2.8C-298.6,290.9-299.7,290.5-301.2,290.5z
				 M-300.7,294.6c-0.2,1.6-1.4,1.6-2.6,1.6h-0.7l0.5-2.9c0-0.2,0.2-0.3,0.4-0.3h0.3c0.8,0,1.5,0,1.9,0.5
				C-300.7,293.7-300.6,294.1-300.7,294.6z"/>
			<path fill="#FFFFFF" d="M-332.4,290.5h-4.4c-0.3,0-0.6,0.2-0.6,0.5l-1.8,11.2c0,0.2,0.1,0.4,0.4,0.4h2.1c0.3,0,0.6-0.2,0.6-0.5
				l0.5-3c0-0.3,0.3-0.5,0.6-0.5h1.4c2.9,0,4.5-1.4,5-4.2c0.2-1.2,0-2.2-0.6-2.8C-329.9,290.9-331,290.5-332.4,290.5z M-331.9,294.6
				c-0.2,1.6-1.4,1.6-2.6,1.6h-0.7l0.5-2.9c0-0.2,0.2-0.3,0.4-0.3h0.3c0.8,0,1.5,0,1.9,0.5C-331.9,293.7-331.8,294.1-331.9,294.6z"
				/>
			<path fill="#FFFFFF" d="M-319.4,294.6h-2.1c-0.2,0-0.3,0.1-0.4,0.3l-0.1,0.6l-0.1-0.2c-0.5-0.7-1.5-0.9-2.5-0.9
				c-2.3,0-4.3,1.8-4.7,4.2c-0.2,1.2,0.1,2.4,0.8,3.2c0.6,0.8,1.6,1.1,2.6,1.1c1.9,0,2.9-1.2,2.9-1.2l-0.1,0.6
				c0,0.2,0.1,0.4,0.4,0.4h1.9c0.3,0,0.6-0.2,0.6-0.5l1.1-7.2C-319,294.8-319.1,294.6-319.4,294.6z M-322.3,298.6
				c-0.2,1.2-1.2,2-2.4,2c-0.6,0-1.1-0.2-1.4-0.6c-0.3-0.4-0.4-0.9-0.3-1.5c0.2-1.2,1.2-2,2.3-2c0.6,0,1.1,0.2,1.4,0.6
				C-322.3,297.5-322.2,298.1-322.3,298.6z"/>
			<path fill="#FFFFFF" d="M-288.1,294.6h-2.1c-0.2,0-0.3,0.1-0.4,0.3l-0.1,0.6l-0.1-0.2c-0.5-0.7-1.5-0.9-2.5-0.9
				c-2.3,0-4.3,1.8-4.7,4.2c-0.2,1.2,0.1,2.4,0.8,3.2c0.6,0.8,1.6,1.1,2.6,1.1c1.9,0,2.9-1.2,2.9-1.2l-0.1,0.6
				c0,0.2,0.1,0.4,0.4,0.4h1.9c0.3,0,0.6-0.2,0.6-0.5l1.1-7.2C-287.7,294.8-287.9,294.6-288.1,294.6z M-291,298.6
				c-0.2,1.2-1.2,2-2.4,2c-0.6,0-1.1-0.2-1.4-0.6c-0.3-0.4-0.4-0.9-0.3-1.5c0.2-1.2,1.2-2,2.3-2c0.6,0,1.1,0.2,1.4,0.6
				C-291.1,297.5-291,298.1-291,298.6z"/>
			<path fill="#FFFFFF" d="M-308.2,294.6h-2.1c-0.2,0-0.4,0.1-0.5,0.3l-2.9,4.3l-1.2-4.1c-0.1-0.3-0.3-0.4-0.6-0.4h-2.1
				c-0.3,0-0.4,0.2-0.3,0.5l2.3,6.8l-2.2,3.1c-0.2,0.2,0,0.6,0.3,0.6h2.1c0.2,0,0.4-0.1,0.5-0.3l7-10.1
				C-307.7,294.9-307.9,294.6-308.2,294.6z"/>
			<path fill="#FFFFFF" d="M-285.7,290.8l-1.8,11.4c0,0.2,0.1,0.4,0.4,0.4h1.8c0.3,0,0.6-0.2,0.6-0.5l1.8-11.2
				c0-0.2-0.1-0.4-0.4-0.4h-2C-285.5,290.5-285.6,290.6-285.7,290.8z"/>
		</g>
	</g>
</g>
</svg>
