<?xml version="1.0" encoding="utf-8"?>
<!-- Generator: Adobe Illustrator 18.1.1, SVG Export Plug-In . SVG Version: 6.00 Build 0)  -->
<svg version="1.1" id="Layer_1" xmlns="http://www.w3.org/2000/svg" xmlns:xlink="http://www.w3.org/1999/xlink" x="0px" y="0px"
	 width="50.8px" height="60px" viewBox="-374 271 50.8 60" enable-background="new -374 271 50.8 60" xml:space="preserve">
<path opacity="0.68" fill="#999999" enable-background="new    " d="M-328.3,286.2c0.7-4.7,0-7.8-2.5-10.7
	c-2.8-3.2-7.8-4.5-14.2-4.5h-18.6c-1.3,0-2.4,1-2.6,2.3l-7.8,49.2c-0.2,1,0.6,1.9,1.6,1.9h11.5l-0.8,5c-0.1,0.8,0.5,1.6,1.4,1.6h9.7
	c1.1,0,2.1-0.8,2.3-2l0.1-0.5l1.8-11.6l0.1-0.6c0.2-1.1,1.2-2,2.3-2h1.5c9.4,0,16.8-3.8,18.9-14.9c0.9-4.6,0.4-8.5-1.9-11.2
	C-326.3,287.5-327.2,286.8-328.3,286.2L-328.3,286.2"/>
<path opacity="0.7" fill="#666666" enable-background="new    " d="M-328.3,286.2c0.7-4.7,0-7.8-2.5-10.7c-2.8-3.2-7.8-4.5-14.2-4.5
	h-18.6c-1.3,0-2.4,1-2.6,2.3l-7.8,49.2c-0.2,1,0.6,1.9,1.6,1.9h11.5l2.9-18.3l-0.1,0.6c0.2-1.3,1.3-2.3,2.6-2.3h5.5
	c10.7,0,19.2-4.4,21.6-17C-328.4,287-328.3,286.6-328.3,286.2"/>
<path fill="#222222" d="M-355,286.3c0.1-0.8,0.6-1.4,1.3-1.7c0.3-0.1,0.6-0.2,1-0.2h14.6c1.7,0,3.3,0.1,4.8,0.4
	c0.4,0.1,0.8,0.1,1.2,0.2c0.4,0.1,0.8,0.2,1.2,0.3c0.2,0.1,0.4,0.1,0.6,0.2c0.7,0.2,1.4,0.5,2,0.9c0.7-4.7,0-7.8-2.5-10.7
	c-2.8-3.2-7.8-4.5-14.2-4.5h-18.6c-1.3,0-2.4,1-2.6,2.3l-7.8,49.2c-0.2,1,0.6,1.9,1.6,1.9h11.5l2.9-18.3L-355,286.3z"/>
</svg>
