<svg xmlns="http://www.w3.org/2000/svg" width="157" height="84" viewBox="0 0 157 84">
  <g fill="none" fill-rule="evenodd" transform="translate(1)">
    <g fill="#ECAC00">
      <path d="M24.5095789 7.36465116C24.5095789 11.256 21.3684737 14.4069767 17.4873684 14.4069767 13.616 14.4069767 10.4671053 11.256 10.4671053 7.36465116 10.4671053 3.47330233 13.616.320372093 17.4873684.320372093 21.3684737.320372093 24.5095789 3.47330233 24.5095789 7.36465116zM19.9371579 17.7650233C18.1884211 17.4055814 16.2858421 17.4290233 14.5663158 17.8333953 2.88989474 19.2066977-.897736842 32.76.175263158 43.092.638736842 47.5635349 7.66094737 47.6084651 7.18773684 43.092 6.80021053 39.3295814 6.96768421 33.6449302 8.96178947 29.6012093L8.96178947 44.3363721C8.96178947 44.5024186 8.97542105 44.6704186 8.98321053 44.8384186 8.98321053 44.9146047 8.96178947 44.9849302 8.96178947 45.0611163 8.96178947 56.7507907 8.94621053 68.4326512 8.45936842 80.1164651 8.24515789 85.3049302 16.2702632 85.2814884 16.4844737 80.1164651 16.8642105 70.9585116 16.9557368 61.8025116 16.9791053 52.6445581 17.3588421 52.668 17.7385789 52.668 18.1202632 52.6445581 18.1416842 61.8025116 18.2332105 70.9663256 18.6071053 80.1164651 18.8193684 85.2814884 26.8444737 85.3049302 26.6322105 80.1164651 26.1531579 68.4326512 26.1375789 56.7507907 26.1375789 45.0611163 26.1375789 44.7016744 26.085 44.3734884 26.0148947 44.0531163 26.0012632 38.9779535 25.8104211 33.9047442 25.863 28.8295814 28.2602105 32.8889302 28.4724737 39.0775814 28.0615789 43.092 27.5903158 47.6006512 34.6105789 47.5557209 35.076 43.092 36.1704211 32.5373023 32.1997368 18.6343256 19.9371579 17.7650233z"/>
    </g>
    <g fill="#ECAC00" transform="translate(40)">
      <path d="M24.5095789 7.36465116C24.5095789 11.256 21.3684737 14.4069767 17.4873684 14.4069767 13.616 14.4069767 10.4671053 11.256 10.4671053 7.36465116 10.4671053 3.47330233 13.616.320372093 17.4873684.320372093 21.3684737.320372093 24.5095789 3.47330233 24.5095789 7.36465116zM19.9371579 17.7650233C18.1884211 17.4055814 16.2858421 17.4290233 14.5663158 17.8333953 2.88989474 19.2066977-.897736842 32.76.175263158 43.092.638736842 47.5635349 7.66094737 47.6084651 7.18773684 43.092 6.80021053 39.3295814 6.96768421 33.6449302 8.96178947 29.6012093L8.96178947 44.3363721C8.96178947 44.5024186 8.97542105 44.6704186 8.98321053 44.8384186 8.98321053 44.9146047 8.96178947 44.9849302 8.96178947 45.0611163 8.96178947 56.7507907 8.94621053 68.4326512 8.45936842 80.1164651 8.24515789 85.3049302 16.2702632 85.2814884 16.4844737 80.1164651 16.8642105 70.9585116 16.9557368 61.8025116 16.9791053 52.6445581 17.3588421 52.668 17.7385789 52.668 18.1202632 52.6445581 18.1416842 61.8025116 18.2332105 70.9663256 18.6071053 80.1164651 18.8193684 85.2814884 26.8444737 85.3049302 26.6322105 80.1164651 26.1531579 68.4326512 26.1375789 56.7507907 26.1375789 45.0611163 26.1375789 44.7016744 26.085 44.3734884 26.0148947 44.0531163 26.0012632 38.9779535 25.8104211 33.9047442 25.863 28.8295814 28.2602105 32.8889302 28.4724737 39.0775814 28.0615789 43.092 27.5903158 47.6006512 34.6105789 47.5557209 35.076 43.092 36.1704211 32.5373023 32.1997368 18.6343256 19.9371579 17.7650233z"/>
    </g>
    <g fill="#ECAC00" transform="translate(80)">
      <path d="M24.5095789 7.36465116C24.5095789 11.256 21.3684737 14.4069767 17.4873684 14.4069767 13.616 14.4069767 10.4671053 11.256 10.4671053 7.36465116 10.4671053 3.47330233 13.616.320372093 17.4873684.320372093 21.3684737.320372093 24.5095789 3.47330233 24.5095789 7.36465116zM19.9371579 17.7650233C18.1884211 17.4055814 16.2858421 17.4290233 14.5663158 17.8333953 2.88989474 19.2066977-.897736842 32.76.175263158 43.092.638736842 47.5635349 7.66094737 47.6084651 7.18773684 43.092 6.80021053 39.3295814 6.96768421 33.6449302 8.96178947 29.6012093L8.96178947 44.3363721C8.96178947 44.5024186 8.97542105 44.6704186 8.98321053 44.8384186 8.98321053 44.9146047 8.96178947 44.9849302 8.96178947 45.0611163 8.96178947 56.7507907 8.94621053 68.4326512 8.45936842 80.1164651 8.24515789 85.3049302 16.2702632 85.2814884 16.4844737 80.1164651 16.8642105 70.9585116 16.9557368 61.8025116 16.9791053 52.6445581 17.3588421 52.668 17.7385789 52.668 18.1202632 52.6445581 18.1416842 61.8025116 18.2332105 70.9663256 18.6071053 80.1164651 18.8193684 85.2814884 26.8444737 85.3049302 26.6322105 80.1164651 26.1531579 68.4326512 26.1375789 56.7507907 26.1375789 45.0611163 26.1375789 44.7016744 26.085 44.3734884 26.0148947 44.0531163 26.0012632 38.9779535 25.8104211 33.9047442 25.863 28.8295814 28.2602105 32.8889302 28.4724737 39.0775814 28.0615789 43.092 27.5903158 47.6006512 34.6105789 47.5557209 35.076 43.092 36.1704211 32.5373023 32.1997368 18.6343256 19.9371579 17.7650233z"/>
    </g>
    <g fill="#60ACB3" transform="translate(120)">
      <path d="M24.5095789 7.36465116C24.5095789 11.256 21.3684737 14.4069767 17.4873684 14.4069767 13.616 14.4069767 10.4671053 11.256 10.4671053 7.36465116 10.4671053 3.47330233 13.616.320372093 17.4873684.320372093 21.3684737.320372093 24.5095789 3.47330233 24.5095789 7.36465116zM19.9371579 17.7650233C18.1884211 17.4055814 16.2858421 17.4290233 14.5663158 17.8333953 2.88989474 19.2066977-.897736842 32.76.175263158 43.092.638736842 47.5635349 7.66094737 47.6084651 7.18773684 43.092 6.80021053 39.3295814 6.96768421 33.6449302 8.96178947 29.6012093L8.96178947 44.3363721C8.96178947 44.5024186 8.97542105 44.6704186 8.98321053 44.8384186 8.98321053 44.9146047 8.96178947 44.9849302 8.96178947 45.0611163 8.96178947 56.7507907 8.94621053 68.4326512 8.45936842 80.1164651 8.24515789 85.3049302 16.2702632 85.2814884 16.4844737 80.1164651 16.8642105 70.9585116 16.9557368 61.8025116 16.9791053 52.6445581 17.3588421 52.668 17.7385789 52.668 18.1202632 52.6445581 18.1416842 61.8025116 18.2332105 70.9663256 18.6071053 80.1164651 18.8193684 85.2814884 26.8444737 85.3049302 26.6322105 80.1164651 26.1531579 68.4326512 26.1375789 56.7507907 26.1375789 45.0611163 26.1375789 44.7016744 26.085 44.3734884 26.0148947 44.0531163 26.0012632 38.9779535 25.8104211 33.9047442 25.863 28.8295814 28.2602105 32.8889302 28.4724737 39.0775814 28.0615789 43.092 27.5903158 47.6006512 34.6105789 47.5557209 35.076 43.092 36.1704211 32.5373023 32.1997368 18.6343256 19.9371579 17.7650233z"/>
    </g>
  </g>
</svg>
