<svg xmlns="http://www.w3.org/2000/svg" xmlns:xlink="http://www.w3.org/1999/xlink" width="231" height="132" viewBox="0 0 231 132">
  <defs>
    <polygon id="license-a" points="0 132.063 253.331 132.063 253.331 0 0 0"/>
  </defs>
  <g fill="none" fill-rule="evenodd" transform="translate(-22)">
    <path stroke="#D3D2D3" d="M174,7.03806147 C189.754057,6.83091321 193.030099,7.09501326 203.972656,17.8564208"/>
    <polygon fill="#D8D8D8" points="203.661 13.223 208.661 22.223 198.661 22.223" transform="rotate(130 203.661 17.723)"/>
    <g>
      <path fill="#F1F5F8" d="M145.978431,92.0283197 L45.4739878,92.0283197 C33.0936174,92.0283197 22.9608124,81.9147 22.9608124,69.5494465 L22.9608124,22.8027563 C22.9608124,10.4375028 33.0936174,0.323883099 45.4739878,0.323883099 L145.978431,0.323883099 C158.360678,0.323883099 168.491606,10.4375028 168.491606,22.8027563 L168.491606,69.5494465 C168.491606,81.9147 158.360678,92.0283197 145.978431,92.0283197 Z"/>
      <path fill="#FFF" d="M30.72298,62.8357563 C30.72298,65.9397141 33.2425796,68.4554746 36.3512739,68.4554746 L71.9877545,68.4554746 C75.0964488,68.4554746 77.6160483,65.9397141 77.6160483,62.8357563 L77.6160483,27.2554465 C77.6160483,24.1514887 75.0964488,21.6357282 71.9877545,21.6357282 L36.3512739,21.6357282 C33.2425796,21.6357282 30.72298,24.1514887 30.72298,27.2554465 L30.72298,62.8357563 Z"/>
      <path fill="#002663" d="M22.9611876,18.7470056 L22.9611876,10.1488366 C22.9611876,4.74454085 26.454482,0.323695775 30.7226048,0.323695775 L160.730564,0.323695775 C164.998687,0.323695775 168.491982,4.74454085 168.491982,10.1488366 L168.491982,18.7470056 L22.9611876,18.7470056 Z"/>
      <mask id="license-b" fill="#fff">
        <use xlink:href="#license-a"/>
      </mask>
      <polygon fill="#FFF" points="82.788 26.478 161.699 26.478 161.699 21.958 82.788 21.958" mask="url(#license-b)"/>
      <polygon fill="#FFF" points="82.788 37.457 161.699 37.457 161.699 32.937 82.788 32.937" mask="url(#license-b)"/>
      <polygon fill="#FFF" points="82.788 48.434 161.699 48.434 161.699 43.914 82.788 43.914" mask="url(#license-b)"/>
      <polygon fill="#FFF" points="82.788 59.415 161.699 59.415 161.699 54.895 82.788 54.895" mask="url(#license-b)"/>
      <polygon fill="#FFF" points="108.016 72.331 137.769 72.331 137.769 66.517 108.016 66.517" mask="url(#license-b)"/>
      <polygon fill="#002663" points="34.929 77.498 73.089 77.498 73.089 75.561 34.929 75.561" mask="url(#license-b)"/>
      <path fill="#603813" d="M71.1478254,38.4251986 C70.5005716,65.2275085 36.8677637,62.6443113 36.8677637,38.4251986 C36.8677637,30.0443254 44.5410043,23.2482127 54.0077945,23.2482127 C63.4745848,23.2482127 71.1478254,30.0443254 71.1478254,38.4251986" mask="url(#license-b)"/>
      <path fill="#F7DCC1" d="M68.2522558,34.8707268 C69.5036132,42.2793887 52.9770663,74.8718817 41.8686904,43.6562197 C33.9440526,21.979093 64.8283771,18.5023606 68.2522558,34.8707268" mask="url(#license-b)"/>
      <polygon fill="#F7DCC1" points="49.803 65.226 58.212 65.226 58.212 51.666 49.803 51.666" mask="url(#license-b)"/>
      <path fill="#C9282D" d="M65.3272315,66.5183577 C65.3272315,62.256738 61.8339371,58.7687662 57.5658143,58.7687662 L50.4497748,58.7687662 C46.1816519,58.7687662 42.6883575,62.256738 42.6883575,66.5183577 L42.6883575,68.4552873 L65.3272315,68.4552873 L65.3272315,66.5183577 Z" mask="url(#license-b)"/>
      <path fill="#603813" d="M42.0720594,27.5388676 C42.0720594,27.5388676 51.0979666,40.6871352 71.1478254,38.103938 C71.1478254,38.103938 62.8010656,14.3906 42.0720594,27.5388676" mask="url(#license-b)"/>
      <path fill="#FFF" d="M229.880721,131.126761 L109.752293,131.126761 C97.3700465,131.126761 87.2391175,121.011268 87.2391175,108.647887 L87.2391175,51.5140845 C87.2391175,39.1507042 97.3700465,29.0352113 109.752293,29.0352113 L229.880721,29.0352113 C242.262967,29.0352113 252.393896,39.1507042 252.393896,51.5140845 L252.393896,108.647887 C252.393896,121.011268 242.262967,131.126761 229.880721,131.126761" mask="url(#license-b)"/>
      <path stroke="#CCC" d="M229.880721,131.126761 L109.752293,131.126761 C97.3700465,131.126761 87.2391175,121.011268 87.2391175,108.647887 L87.2391175,51.5140845 C87.2391175,39.1507042 97.3700465,29.0352113 109.752293,29.0352113 L229.880721,29.0352113 C242.262967,29.0352113 252.393896,39.1507042 252.393896,51.5140845 L252.393896,108.647887 C252.393896,121.011268 242.262967,131.126761 229.880721,131.126761 Z" mask="url(#license-b)"/>
      <polygon fill="#FFF" points="136.051 80.441 136.051 80.441 243.219 80.441 243.219 52.761 136.051 52.761" mask="url(#license-b)"/>
      <path fill="#002663" d="M87.2385547,48.7042254 L87.2385547,38.6524225 C87.2385547,32.3321127 91.2140063,27.1619718 96.0712238,27.1619718 L165.222318,27.1619718 L244.033441,27.1619718 C248.892535,27.1619718 252.86611,32.3321127 252.86611,38.6524225 L252.86611,48.7042254 L87.2385547,48.7042254 Z" mask="url(#license-b)"/>
      <polygon fill="#002663" points="94.944 58.153 128.71 58.153 128.71 55.997 94.944 55.997" mask="url(#license-b)"/>
      <polygon fill="#002663" points="94.944 79.721 128.71 79.721 128.71 61.028 94.944 61.028" mask="url(#license-b)"/>
      <path stroke="#B3B3B3" stroke-width=".5" d="M190.368972 52.7597887L190.368972 80.4406479M189.255883 52.7597887L189.255883 80.4406479M188.142044 52.7597887L188.142044 80.4406479M187.028955 52.7597887L187.028955 80.4406479M185.916054 52.7597887L185.916054 80.4406479M184.802965 52.7597887L184.802965 80.4406479M183.689876 52.7597887L183.689876 80.4406479M182.576037 52.7597887L182.576037 80.4406479M181.462948 52.7597887L181.462948 80.4406479M180.350046 52.7597887L180.350046 80.4406479M179.236958 52.7597887L179.236958 80.4406479M178.123869 52.7597887L178.123869 80.4406479M177.010029 52.7597887L177.010029 80.4406479M175.89694 52.7597887L175.89694 80.4406479M174.784039 52.7597887L174.784039 80.4406479M173.67095 52.7597887L173.67095 80.4406479M172.558049 52.7597887L172.558049 80.4406479M171.444022 52.7597887L171.444022 80.4406479M170.330933 52.7597887L170.330933 80.4406479M169.218032 52.7597887L169.218032 80.4406479M168.104943 52.7597887L168.104943 80.4406479M166.992041 52.7597887L166.992041 80.4406479M165.878014 52.7597887L165.878014 80.4406479M164.764926 52.7597887L164.764926 80.4406479M163.652024 52.7597887L163.652024 80.4406479M162.538935 52.7597887L162.538935 80.4406479M161.425096 52.7597887L161.425096 80.4406479M160.312007 52.7597887L160.312007 80.4406479M159.198918 52.7597887L159.198918 80.4406479M158.086017 52.7597887L158.086017 80.4406479M156.972928 52.7597887L156.972928 80.4406479M155.859089 52.7597887L155.859089 80.4406479M154.746 52.7597887L154.746 80.4406479M153.632911 52.7597887L153.632911 80.4406479M152.520009 52.7597887L152.520009 80.4406479M151.406921 52.7597887L151.406921 80.4406479M150.293081 52.7597887L150.293081 80.4406479M149.179992 52.7597887L149.179992 80.4406479M148.067091 52.7597887L148.067091 80.4406479M146.954002 52.7597887L146.954002 80.4406479M145.840913 52.7597887L145.840913 80.4406479M144.727074 52.7597887L144.727074 80.4406479M143.613985 52.7597887L143.613985 80.4406479M142.501084 52.7597887L142.501084 80.4406479M141.387995 52.7597887L141.387995 80.4406479M140.274906 52.7597887L140.274906 80.4406479M139.161066 52.7597887L139.161066 80.4406479M138.047977 52.7597887L138.047977 80.4406479M136.935076 52.7597887L136.935076 80.4406479M135.821987 52.7597887L135.821987 80.4406479M243.218464 52.7597887L243.218464 80.4406479M242.165035 52.7597887L242.165035 80.4406479M241.111606 52.7597887L241.111606 80.4406479M240.058927 52.7597887L240.058927 80.4406479M239.005498 52.7597887L239.005498 80.4406479M237.952069 52.7597887L237.952069 80.4406479M236.89864 52.7597887L236.89864 80.4406479M235.845024 52.7597887L235.845024 80.4406479M234.792533 52.7597887L234.792533 80.4406479M233.739104 52.7597887L233.739104 80.4406479M232.685675 52.7597887L232.685675 80.4406479M231.632058 52.7597887L231.632058 80.4406479M230.578629 52.7597887L230.578629 80.4406479M229.526138 52.7597887L229.526138 80.4406479M228.472709 52.7597887L228.472709 80.4406479M227.419093 52.7597887L227.419093 80.4406479M226.365664 52.7597887L226.365664 80.4406479M225.313173 52.7597887L225.313173 80.4406479M224.259744 52.7597887L224.259744 80.4406479M223.206127 52.7597887L223.206127 80.4406479M222.152698 52.7597887L222.152698 80.4406479M221.099269 52.7597887L221.099269 80.4406479M220.046778 52.7597887L220.046778 80.4406479M218.993162 52.7597887L218.993162 80.4406479M217.939733 52.7597887L217.939733 80.4406479M216.886304 52.7597887L216.886304 80.4406479M215.832875 52.7597887L215.832875 80.4406479M214.780196 52.7597887L214.780196 80.4406479M213.726767 52.7597887L213.726767 80.4406479M212.673338 52.7597887L212.673338 80.4406479M211.619909 52.7597887L211.619909 80.4406479M210.566292 52.7597887L210.566292 80.4406479M209.513801 52.7597887L209.513801 80.4406479M208.460372 52.7597887L208.460372 80.4406479M207.406756 52.7597887L207.406756 80.4406479M206.353327 52.7597887L206.353327 80.4406479M205.299898 52.7597887L205.299898 80.4406479M204.247407 52.7597887L204.247407 80.4406479M203.19379 52.7597887L203.19379 80.4406479M202.140361 52.7597887L202.140361 80.4406479M201.086932 52.7597887L201.086932 80.4406479M200.033503 52.7597887L200.033503 80.4406479M198.980825 52.7597887L198.980825 80.4406479M197.927396 52.7597887L197.927396 80.4406479M196.873967 52.7597887L196.873967 80.4406479M195.820538 52.7597887L195.820538 80.4406479M194.766921 52.7597887L194.766921 80.4406479M193.71443 52.7597887L193.71443 80.4406479M192.661001 52.7597887L192.661001 80.4406479M191.607572 52.7597887L191.607572 80.4406479" mask="url(#license-b)"/>
      <polygon fill="#002663" points="94.944 87.63 128.71 87.63 128.71 85.474 94.944 85.474" mask="url(#license-b)"/>
      <polygon fill="#002663" points="94.944 84.035 128.71 84.035 128.71 81.879 94.944 81.879" mask="url(#license-b)"/>
      <path stroke="#CCC" d="M137.519481,116.748149 L242.485285,116.748149" mask="url(#license-b)"/>
    </g>
  </g>
</svg>
