<?xml version="1.0" encoding="utf-8"?>
<!-- Generator: Adobe Illustrator 18.1.1, SVG Export Plug-In . SVG Version: 6.00 Build 0)  -->
<svg version="1.1" id="chart-map" xmlns="http://www.w3.org/2000/svg" xmlns:xlink="http://www.w3.org/1999/xlink" x="0px" y="0px"
	 width="270.7px" height="168.8px" viewBox="-264 216.2 270.7 168.8" enable-background="new -264 216.2 270.7 168.8"
	 xml:space="preserve">
<path fill="#E6E7E8" d="M5.6,237c-0.8-0.6-1.2,0.7-1.8,0c0.2-1.1-0.5-1.2-0.3-2.2c-0.8,0-1.8,0.1-2.1-0.3c-0.5-3.3-1.8-5.8-2.5-8.9
	c-1.2,0-1.8-0.7-2.8-0.9c-0.8,0.7-1.3,1.5-2.5,1.8c-0.9-0.1-0.4-1.5-1.5-1.2c-1.2,3-3.4,7.7-1.8,11.4c-0.8,1.3-1.6,2.5-1.5,4.6
	c-1.1-0.3-1.5,0.7-2.1,0c-0.3,0.9-0.2,2.2-1.2,2.5c-3.2,0.6-6.7,2-10.1,2.8c-1.6,0.4-3.3,0.1-4.6,0.9c-1.5,1-2,3.1-3.1,4.6
	c-0.7,1-2.3,1.2-1.8,2.8c1.4,0.5,1.1,2.1,1.2,3.1c-2.9,4.2-8.3,2.1-12.9,4.3c0.1,1.5,1,2.1,1.5,3.1c-4,5.4-9.6,9-15.9,12
	c-1-1.3-4.1-0.4-4.6-2.2c1.6-1.5,1.3-5.7,3.7-5.5c-0.3-4-0.8-7.8-3.4-9.5c-2,0.2-1.7,2.8-3.4,3.4c-1.2,0.2-0.9-1.2-0.9-2.2
	c3.5-0.9,1.2-6.4,1.8-8c-0.8,0.1-0.8-0.6-0.9-1.2c-3.3,0-6.1-3.7-8-0.3c-0.3,1,1,0.4,0.9,1.2c-1.1-0.2-1.3,0.3-1.8,0.6
	c-0.2,1.9,0.8,3.1-0.9,3.4c-0.5-1.5,1.3-2.6,0-3.1c-2.8,3.1-3,6.4-3.4,11.7c3.4,3.3,2.4,11.6-2.1,12.9c-6.4-5.8-2.8-17.7-1.2-24.3
	c-1.2,1.5-2.5,4.6-4,4.9c1-3,2.9-5.1,3.7-8.3c2.6,0.7,4.1-1.3,7.4-2.2c2.7,0.5,5.1,0,7.1-0.3c-1.4-0.2-1.8-1.5-1.5-3.4
	c-1.6,0-2.9,1.3-4.3,0.6v-1.8c-4.5,0.5-6.8,3.4-10.7,2.8c-0.5-2.5-4-3-4.9-1.8c0.5-2,2.1-2.8,3.1-4.3c-3,0-4.1,2-5.5,3.7
	c-2.1,1.2-4.5,2-6.4,3.4c-0.3-1.2-1.8,0-2.1-0.6c0.3-0.7,0.9-0.9,0.9-1.8c-1.6-0.6-3.6,2.5-5.8,1.2c2.2-1.2,3.1-4,5.2-5.5
	c1.7-1.3,4.3-1,5.5-3.1c-1.8-0.4-4.7-0.1-5.8-1.2c-1.6,1.6-4.8,1.5-5.2-0.6c-2.6,0.8-4.9-3-7.4-0.6c-1.3-0.5-2.2-1.3-4-1.2
	c-1.3-0.9-0.1-4.4-2.5-4.3c-0.7,0.3,0.1,2.2-0.6,2.5c-45.4,0.9-83.8-7-118.4-16c1.4,2.3,0.1,5,0.6,6.8c-1.5-1.2-0.7-2.1-0.6-3.1
	c-1.2-0.2-0.8,1.3-1.8,1.2c-3.2-0.5-4.9-2.5-7.4-3.7c-0.2,2.9-0.5,7.7,0.9,9.9c-0.5,0-1,0.1-1.2,0.3c-0.3,1.2,0.8,0.9,0.6,1.8
	c-1.3,0.8-1.7,2.4-0.3,3.1c-1-0.3-0.6,0.8-1.2,0.9c-2.1,7-4.6,13.6-8.6,18.8c0.1,1.8-0.3,3.2-0.6,4.6c1.8,4.8-2.2,8.5-3.7,12
	c3.5,2.2,0.2,6.3,0.6,9.2c0.2,1.3,2.4,3.2,2.5,5.2s0.3,2.6,1.5,3.7c-1.6,2.6,0,6.1,1.8,7.1c-0.2,1.1-1.4,1-1.5,2.2
	c0.1,4,4,7.3,4.3,10.8c0.1,1.6-1.5,2.8-0.3,4.3c5.4-0.2,5.9,4.5,9.8,5.9c0.2,1-0.6,1,0,1.5c3.6,0.8,4.8,4,4.6,8.6
	c3.8,1.4,8.9,1.3,13.2,2.2c0,0.6-0.8,0.4-0.6,1.2c4.8,2.4,9.4,5.7,13.8,8.3c5.7,3.4,12.5,4.2,21.2,5.2c0.2-1.1,0.1-2.3,0.6-3.1
	c3,0.5,5.9,1,9.2,1.2c2.1,2.7,3.7,5.9,7.1,7.4c1.7,1.9,1.2,3.9,1.8,6.5c0.9,3.4,5.2,4.2,8,6.2c2.2-1.4,1.9-5.3,5.2-5.5
	c6.5,0.8,9.7,4.9,10.7,11.1c2.2,1.2,2.8,4,4.9,5.2c-1.4,7.8,7.3,9.6,12.6,10.8c-1-4.1-0.8-8.2-0.3-12.6c5.2-3.5,11.5-5.9,15.6-10.5
	c4.4-3.7,12.1-1,16.6-0.9c-0.2-1.7-2.1-0.1-2.5-1.2c1.9-1.8,3.5,1.2,5.2,1.5c0.1,0.6-0.3,0.7-0.3,1.2c1.1,0.5,1.9,1.2,3.4,1.2
	c0.8-0.6,1.2-1.5,2.5-1.5c1,0.6-0.8,1.3,0,1.5c2.4-0.8,0.5-2.3,2.5-3.1c0.5,1.5,4.6,3.4,4.9,1.2c-0.9-1.2-3.4-0.7-4-2.2
	c1-0.8,2.2-1.1,1.5-3.4c-1.4-0.1-0.8,1.7-2.5,1.2c1.4-3.7,4.6-3.2,8.9-3.4c0.6-0.5,0.1-2.1,1.2-2.2c0.6,0.5,1.5,2.3,0.3,2.8
	c5.1-1.7,12.4-3,15,1.8c2.7-0.2,5.2-1.4,5.5-3.1c5.2-0.6,4.9,4.5,9.2,4.9c2.6,2.1-0.4,7.8,2.1,9.9c0.8-0.9-0.2-2.1,0-2.2
	c0.5,0.1,1.1-0.1,1.2,0.3c0.1,1.5-1.2,1.5-1.2,2.8c1.6,1.8,2.9,3.9,4,6.2c0.9,0.3,0.8-0.4,1.5-0.3c0.6,1,1,2.3,1.5,3.4
	c2.7-0.6,3.8,2.3,4.6,4.6c1.2-0.4,3.2-1.5,4-1.2c-0.4,1.9-3.5,2.7-3.4,4c2.1-1.6,4.1-3.3,4.6-6.5c-1.1-0.5-0.2,1-0.9,0.9
	c2.3-8.1-2.1-13.6-4.9-18.5c0-0.6,0.8-0.4,0.6-1.2c-4.6-4.2-9.5-12.5-6.7-20.6c0.6-1.9,2.7-2.9,2.8-4.9c2.9-1,3.7-4.1,6.1-5.5
	c-0.2-4.1,2-5.8,5.5-6.2c-0.3-6.1,7.5-4.9,7.7-8.9c-0.2,0.5-2.7,0.9-3.1,0c1.3,1,2.1-1.7,0.9-2.2c2,0.6,4.1-0.3,4.3-2.5
	c-0.5-0.8-1.9,0.7-2.5-0.3c1.1,0.1,1.8-0.2,2.1-0.9l-0.2-0.5l0.5,0.2c-1.3-2-2.3-4.2-3.4-6.5c-0.7,0-1.5-0.1-1.9,0.2
	c1.2-1-1.4-2.2-0.8-2.9c0.3,0,0.4,0.2,0.6,0.3c-0.2-2.3-0.9-4.1-2.5-4.9c0.8,0.2,0.6-0.6,0.9-0.9c-2.1-1.4-2.5-7.1-0.3-7.4
	c-1.4,1.3,0.9,2.8-0.6,4.3c1.4,0,0.5,0.4,0.6,2.2c1.6,0.1,1.3,2.2,2.5,2.8c0.4-1.1-1-1.8-0.3-2.2c3.2,1.1-0.6,5.6,1.8,7.4
	c0.6-4,3.4-7.7,1.8-12c-2.1-0.6-2.5-3.1-3.7-4.6c0.8,1.2,2,2.1,4,2.2c0.1,0.7-0.6,0.7-0.3,1.5c2.3-2.2,4.1-6.2,3.1-10.8
	c-0.4-0.8-1.2,0.6-1.5-0.3c0.6-0.1,0.6-0.8,1.2-0.9l-0.2-0.8l0.5-0.7c2.2-4.4,8.5-4.6,12.3-7.4c0.4-0.9-0.1-1.5,1.2-1.8
	c0.2,1-0.1,1.5-0.6,1.8c1.4-0.8,2.1-2.2,4-2.5c0-1.6-0.5-2.8-2.1-2.8c0.1,1,1.6,0.7,1.5,1.8c-2.7,2.4-3.2-2.9-5.2-2.2
	c0.2-2.7-0.2-6.4,1.2-10.5c1.7,0.3,2.9-1.6,4.3-2.5c0.2-1.1-0.3-2.9,0-3.1c0.4,0.5,1.3,0.4,1.2,1.2c-0.7,0.5-1.1,0.5-0.6,1.5
	c1.5-0.4,0.8-2.5,1.8-3.4c-0.1,0.8-0.1,1.5,0.9,1.2c0.6-1.8-0.4-0.9-0.6-1.8C4,244,8.5,239.4,5.6,237z"/>
<g>
	<polygon fill="#ECAC00" points="-202.1,324.3 -208,323.5 -210.6,318.1 -213.3,323.5 -219.2,324.3 -214.9,328.5 -215.9,334.4 
		-210.6,331.6 -205.4,334.4 -206.4,328.5 	"/>
	<polygon fill="#ECAC00" points="-3.1,254.3 -9,253.5 -11.6,248.1 -14.3,253.5 -20.2,254.3 -15.9,258.5 -16.9,264.4 -11.6,261.6 
		-6.3,264.4 -7.4,258.5 	"/>
	<polygon fill="#ECAC00" points="-35,265.5 -37.6,260.1 -40.3,265.5 -46.2,266.3 -41.9,270.5 -42.9,276.4 -37.6,273.6 -32.3,276.4 
		-33.4,270.5 -29.1,266.3 	"/>
	<polygon fill="#ECAC00" points="-130,345.5 -132.6,340.1 -135.3,345.5 -141.2,346.3 -136.9,350.5 -137.9,356.4 -132.6,353.6 
		-127.3,356.4 -128.4,350.5 -124.1,346.3 	"/>
	<polygon fill="#ECAC00" points="-72,277.5 -74.6,272.1 -77.3,277.5 -83.2,278.3 -78.9,282.5 -79.9,288.4 -74.6,285.6 -69.3,288.4 
		-70.4,282.5 -66.1,278.3 	"/>
	<polygon fill="#ECAC00" points="-40,356.5 -42.6,351.1 -45.3,356.5 -51.2,357.3 -46.9,361.5 -47.9,367.4 -42.6,364.6 -37.3,367.4 
		-38.4,361.5 -34.1,357.3 	"/>
</g>
</svg>
