<?xml version="1.0" encoding="utf-8"?>
<!-- Generator: Adobe Illustrator 18.1.1, SVG Export Plug-In . SVG Version: 6.00 Build 0)  -->
<svg version="1.1" id="Layer_1" xmlns="http://www.w3.org/2000/svg" xmlns:xlink="http://www.w3.org/1999/xlink" x="0px" y="0px"
	 width="156.8px" height="44.2px" viewBox="0 0 156.8 44.2" enable-background="new 0 0 156.8 44.2" xml:space="preserve">
<path fill="#4F5059" d="M51.2,11.7h-3.3v7.8c0,2.1,0.3,2.4,2,2.4c0.4,0,0.8,0,1.4-0.1v3.5c-1.1,0.1-1.8,0.2-2.8,0.2
	c-2.3,0-3.6-0.4-4.4-1.6c-0.6-0.9-0.7-1.6-0.7-4.5v-7.6h-2.8v-3h2.8v-5h4.5v5h3.3V11.7z"/>
<path fill="#4F5059" d="M63.2,12.5c-0.8-0.1-1.3-0.2-1.8-0.2c-1.6,0-2.9,0.8-3.7,2.1c-0.5,0.8-0.7,1.9-0.7,3.8v6.9h-4.5V8.6h4.3v3
	c1.2-2.3,2.9-3.4,5.3-3.4c0.3,0,0.5,0,1,0.1V12.5z"/>
<path fill="#4F5059" d="M80,25.1h-4.3v-2.3c-1.3,1.9-3.1,2.8-5.5,2.8c-2,0-3.6-0.7-4.6-2c-0.8-1-1.1-2.3-1.1-4.5V8.6h4.5v9.1
	c0,1.9,0.1,2.5,0.4,3c0.5,0.7,1.3,1.1,2.4,1.1c1.4,0,2.5-0.7,3.1-1.9c0.3-0.6,0.5-1.5,0.5-3.2V8.6H80V25.1z"/>
<path fill="#4F5059" d="M92.5,13.4c-0.2-2.5-1.8-3.8-4.6-3.8c-2.6,0-4.1,1.2-4.1,3.2c0,0.9,0.4,1.6,1,2c0.7,0.4,1.3,0.6,3.4,1.1
	c2.6,0.6,3.4,0.8,4.2,1.3c1.3,0.8,2,1.9,2,3.5c0,3-2.4,4.9-6.2,4.9c-4,0-6.6-2.1-6.6-5.6v-0.2h1.5c0,1.4,0.3,2.2,0.9,2.9
	c0.9,1,2.4,1.6,4.3,1.6c2.8,0,4.6-1.3,4.6-3.4c0-1.2-0.6-2-1.9-2.6c-0.7-0.3-1.4-0.5-3.6-1c-2.2-0.5-3-0.8-3.7-1.3
	c-0.9-0.6-1.4-1.7-1.4-3c0-2.8,2.2-4.5,5.7-4.5c3.7,0,5.8,1.8,6,5.1H92.5z"/>
<polygon fill="#4F5059" points="108.1,10 102.3,10 102.3,25.1 100.8,25.1 100.8,10 95,10 95,8.7 108.1,8.7 "/>
<path fill="#4F5059" d="M113.5,10.3l-3.3,8.4h6.6L113.5,10.3z M121,25.1h-1.7l-2-5.2h-7.5l-2,5.2h-1.7l6.6-16.5h1.8L121,25.1z"/>
<path fill="#4F5059" d="M135.1,22.1c-1.1,2.2-3.5,3.4-6.2,3.4c-4.6,0-7.7-3.4-7.7-8.4c0-5.2,3.2-8.8,7.8-8.8c3.6,0,6.3,2.1,6.8,5.4
	h-1.5c-0.4-2.4-2.6-4.1-5.3-4.1c-3.8,0-6.3,2.9-6.3,7.4c0,4.3,2.5,7.1,6.3,7.1c2.3,0,4.1-1.1,5-2.9c0.5-0.9,0.7-1.8,0.7-3.2h-5.6
	v-1.3h7C136.1,16.8,136.3,19.8,135.1,22.1"/>
<polygon fill="#4F5059" points="150.2,10 140.4,10 140.4,15.9 149.6,15.9 149.6,17.3 140.4,17.3 140.4,23.8 150.3,23.8 150.3,25.1 
	138.8,25.1 138.8,8.7 150.2,8.7 "/>
<path fill="#4F5059" d="M15.9,17.4H30v-4.8H15.9V17.4z M25.1,4.8H30V0h-4.8V4.8z M21.1,11.1H30V6.3h-8.9V11.1z M10.7,23.7H30v-4.8
	H10.7V23.7z M6.6,25.1H30V30H6.6V25.1z"/>
<path fill="#F2BB1A" d="M0,17.4h14.1v-4.8H0V17.4z M23.3,0H0v4.8h23.3V0z M19.3,6.3H0v4.8h19.3V6.3z M8.9,18.9H0v4.8h8.9V18.9z
	 M4.8,30H0v-4.8h4.8V30z"/>
<line fill="none" stroke="#F2BB1A" stroke-width="0.6041" stroke-miterlimit="10" x1="44" y1="30.6" x2="149.8" y2="30.6"/>
<polygon fill="#4F5059" points="56.8,36.1 56.8,36.6 55.1,36.6 55.1,42.5 54.5,42.5 54.5,36.6 52.8,36.6 52.8,36.1 "/>
<path fill="#4F5059" d="M57.3,37.7V38c0,0.3,0,0.5,0,0.6c0,0,0-0.1,0.1-0.1c0.2-0.4,0.3-0.5,0.5-0.7c0.2-0.1,0.4-0.2,0.7-0.2
	c0.1,0,0.1,0,0.2,0v0.5c-0.1,0-0.1,0-0.2,0c-0.4,0-0.8,0.2-1,0.5c-0.2,0.3-0.2,0.4-0.2,0.9v2.9h-0.6v-4.8H57.3z"/>
<path fill="#4F5059" d="M59.9,37.7v3.2c0,0.3,0,0.6,0.1,0.7c0.1,0.3,0.4,0.5,0.7,0.5c0.4,0,0.8-0.3,1-0.6c0.1-0.2,0.1-0.4,0.1-0.8
	v-3h0.6v4.8h-0.5v-0.3c0-0.1,0-0.2,0-0.5c-0.3,0.6-0.7,0.8-1.3,0.8c-0.6,0-1-0.3-1.2-1c0-0.2,0-0.4,0-0.8v-3.2H59.9z"/>
<path fill="#4F5059" d="M63.7,40.5v0.1c0,0.5,0.1,0.8,0.3,1.1c0.2,0.3,0.6,0.4,1,0.4c0.8,0,1.4-0.5,1.4-1.3c0-0.4-0.1-0.7-0.4-0.9
	c-0.2-0.2-0.3-0.2-1.3-0.6c-1-0.3-1.4-0.8-1.4-1.7c0-1.1,0.7-1.7,1.8-1.7c1.1,0,1.7,0.6,1.7,1.8h-0.6c0-0.9-0.4-1.3-1.2-1.3
	c-0.8,0-1.2,0.4-1.2,1.2c0,0.4,0.2,0.8,0.5,1c0.2,0.1,0.2,0.1,1.2,0.5c1,0.3,1.4,0.8,1.4,1.7c0,1.1-0.7,1.8-2,1.8
	c-1.2,0-1.9-0.7-1.9-2v-0.2H63.7z"/>
<path fill="#4F5059" d="M68.1,37.7v-1.4h0.6v1.4h0.8v0.4h-0.8v3.2c0,0.6,0.1,0.7,0.5,0.7c0.1,0,0.2,0,0.3,0v0.4c-0.2,0-0.3,0-0.5,0
	c-0.4,0-0.7-0.1-0.8-0.3c-0.1-0.1-0.1-0.4-0.1-0.8v-3.2h-0.7v-0.4H68.1z"/>
<path fill="#4F5059" d="M72.4,40.3c0-0.3,0-0.4,0-0.5c-0.1,0.1-0.2,0.2-0.7,0.3c-0.7,0.2-0.8,0.2-1,0.4c-0.2,0.2-0.3,0.4-0.3,0.7
	c0,0.6,0.3,0.9,0.8,0.9c0.3,0,0.6-0.2,0.9-0.4c0.2-0.3,0.2-0.5,0.2-1V40.3z M70.1,39.1c0-1,0.5-1.5,1.4-1.5c0.6,0,1.1,0.2,1.3,0.6
	c0.1,0.2,0.1,0.4,0.1,1v2.3c0,0.5,0,0.6,0.3,0.6c0,0,0.1,0,0.2,0v0.4c-0.1,0-0.2,0.1-0.3,0.1c-0.4,0-0.6-0.2-0.6-0.6
	c0,0,0-0.1,0-0.1c-0.2,0.5-0.6,0.8-1.2,0.8c-0.8,0-1.2-0.5-1.2-1.3c0-0.4,0.1-0.8,0.4-1c0.2-0.2,0.4-0.3,1.1-0.4c1-0.3,1-0.3,1-0.9
	c0-0.6-0.3-0.9-0.9-0.9c-0.6,0-0.9,0.3-0.9,1.1H70.1z"/>
<path fill="#4F5059" d="M74.6,38.6c-0.1,0.3-0.2,0.8-0.2,1.4c0,1.4,0.3,2,1,2c0.7,0,1.1-0.6,1.1-2c0-0.7-0.1-1.3-0.3-1.5
	c-0.2-0.2-0.5-0.4-0.7-0.4C75.1,38.1,74.8,38.3,74.6,38.6 M74.6,43c0.1,0.5,0.3,0.7,0.9,0.7c0.4,0,0.7-0.2,0.9-0.5
	c0.1-0.1,0.2-0.5,0.2-0.8v-0.3c0-0.1,0-0.3,0-0.5c-0.3,0.6-0.6,0.9-1.2,0.9c-1,0-1.4-0.8-1.4-2.4c0-1.6,0.5-2.5,1.5-2.5
	c0.6,0,0.9,0.3,1.2,0.9c0-0.2,0-0.3,0-0.5v-0.2H77v4c0,0.9,0,1.1-0.1,1.5c-0.2,0.6-0.7,1-1.5,1c-0.9,0-1.3-0.4-1.4-1.2H74.6z"/>
<path fill="#4F5059" d="M80.5,39.7c0-1.1-0.3-1.7-1-1.7c-0.5,0-0.8,0.3-1,0.8c-0.1,0.2-0.1,0.6-0.1,0.9H80.5z M78.5,40.2
	c0,0.8,0.1,1,0.2,1.3c0.1,0.4,0.5,0.6,0.9,0.6c0.6,0,0.9-0.4,1-1.2H81c0,0.2-0.1,0.6-0.2,0.8c-0.2,0.5-0.7,0.9-1.4,0.9
	c-1.1,0-1.6-0.8-1.6-2.5c0-1.7,0.6-2.5,1.7-2.5c1,0,1.5,0.7,1.5,2.3c0,0,0,0.1,0,0.2h-2.6V40.2z"/>
<rect x="84.5" y="36.1" fill="#4F5059" width="0.6" height="6.4"/>
<path fill="#4F5059" d="M86.7,38c0,0.3,0,0.3,0,0.5c0.3-0.6,0.7-0.9,1.3-0.9c0.5,0,0.9,0.3,1.1,0.7c0.1,0.2,0.1,0.4,0.1,1v3.2h-0.6
	v-3.1c0-0.5,0-0.7-0.1-0.9c-0.1-0.3-0.4-0.4-0.7-0.4c-0.4,0-0.7,0.2-0.9,0.6c-0.1,0.2-0.2,0.4-0.2,0.8v3.1h-0.6v-4.8h0.5V38z"/>
<path fill="#4F5059" d="M90.4,41L90.4,41c0,0.9,0.3,1.2,0.9,1.2c0.6,0,0.9-0.3,0.9-0.9c0-0.3-0.1-0.5-0.3-0.7
	c-0.2-0.1-0.3-0.2-0.9-0.4c-0.8-0.3-1.1-0.6-1.1-1.3c0-0.8,0.5-1.3,1.4-1.3c0.6,0,1,0.2,1.2,0.6c0.1,0.2,0.1,0.4,0.1,0.8h-0.5V39
	c0-0.4,0-0.5-0.2-0.7c-0.1-0.2-0.4-0.3-0.7-0.3c-0.5,0-0.9,0.3-0.9,0.8c0,0.5,0.2,0.7,0.8,0.9c0.7,0.2,0.8,0.3,1.1,0.5
	c0.3,0.2,0.4,0.5,0.4,1c0,0.9-0.6,1.4-1.5,1.4c-0.6,0-1.1-0.2-1.3-0.7c-0.1-0.2-0.1-0.5-0.1-1H90.4z"/>
<path fill="#4F5059" d="M94.1,37.7v3.2c0,0.3,0,0.6,0.1,0.7c0.1,0.3,0.4,0.5,0.7,0.5c0.4,0,0.8-0.3,1-0.6c0.1-0.2,0.1-0.4,0.1-0.8
	v-3h0.6v4.8H96v-0.3c0-0.1,0-0.2,0-0.5c-0.3,0.6-0.7,0.8-1.3,0.8c-0.6,0-1-0.3-1.2-1c0-0.2,0-0.4,0-0.8v-3.2H94.1z"/>
<path fill="#4F5059" d="M98.1,37.7V38c0,0.3,0,0.5,0,0.6c0,0,0-0.1,0.1-0.1c0.2-0.4,0.3-0.5,0.5-0.7c0.2-0.1,0.4-0.2,0.7-0.2
	c0.1,0,0.1,0,0.2,0v0.5c-0.1,0-0.1,0-0.2,0c-0.4,0-0.8,0.2-1,0.5c-0.2,0.3-0.2,0.4-0.2,0.9v2.9h-0.6v-4.8H98.1z"/>
<path fill="#4F5059" d="M102.3,40.3c0-0.3,0-0.4,0-0.5c-0.1,0.1-0.2,0.2-0.7,0.3c-0.7,0.2-0.8,0.2-1,0.4c-0.2,0.2-0.3,0.4-0.3,0.7
	c0,0.6,0.3,0.9,0.8,0.9c0.3,0,0.6-0.2,0.9-0.4c0.2-0.3,0.2-0.5,0.2-1V40.3z M100,39.1c0-1,0.5-1.5,1.4-1.5c0.6,0,1.1,0.2,1.3,0.6
	c0.1,0.2,0.1,0.4,0.1,1v2.3c0,0.5,0,0.6,0.3,0.6c0,0,0.1,0,0.2,0v0.4c-0.1,0-0.2,0.1-0.3,0.1c-0.4,0-0.6-0.2-0.6-0.6
	c0,0,0-0.1,0-0.1c-0.2,0.5-0.6,0.8-1.2,0.8c-0.8,0-1.2-0.5-1.2-1.3c0-0.4,0.1-0.8,0.4-1c0.2-0.2,0.4-0.3,1.1-0.4c1-0.3,1-0.3,1-0.9
	c0-0.6-0.3-0.9-0.9-0.9c-0.6,0-0.9,0.3-0.9,1.1H100z"/>
<path fill="#4F5059" d="M104.5,38c0,0.3,0,0.3,0,0.5c0.3-0.6,0.7-0.9,1.3-0.9c0.5,0,0.9,0.3,1.1,0.7c0.1,0.2,0.1,0.4,0.1,1v3.2h-0.6
	v-3.1c0-0.5,0-0.7-0.1-0.9c-0.1-0.3-0.4-0.4-0.7-0.4c-0.4,0-0.7,0.2-0.9,0.6c-0.1,0.2-0.2,0.4-0.2,0.8v3.1h-0.6v-4.8h0.5V38z"/>
<path fill="#4F5059" d="M110.9,40.9c0,1.1-0.6,1.7-1.5,1.7c-1.1,0-1.6-0.8-1.6-2.5c0-1.7,0.5-2.5,1.7-2.5c0.9,0,1.4,0.6,1.4,1.5
	h-0.5c0-0.7-0.4-1.1-0.9-1.1c-0.7,0-1.1,0.6-1.1,2c0,1.4,0.3,2.1,1.1,2.1c0.6,0,0.9-0.5,1-1.3H110.9z"/>
<path fill="#4F5059" d="M114.1,39.7c0-1.1-0.3-1.7-1-1.7c-0.5,0-0.8,0.3-1,0.8c-0.1,0.2-0.1,0.6-0.1,0.9H114.1z M112,40.2
	c0,0.8,0.1,1,0.2,1.3c0.1,0.4,0.5,0.6,0.9,0.6c0.6,0,0.9-0.4,1-1.2h0.5c0,0.2-0.1,0.6-0.2,0.8c-0.2,0.5-0.7,0.9-1.4,0.9
	c-1.1,0-1.6-0.8-1.6-2.5c0-1.7,0.6-2.5,1.7-2.5c1,0,1.5,0.7,1.5,2.3c0,0,0,0.1,0,0.2H112V40.2z"/>
<path fill="#4F5059" d="M120,37.7c-0.2-0.6-0.2-0.7-0.3-1.2c0,0.2-0.1,0.3-0.1,0.6c0,0.2-0.1,0.3-0.1,0.4c0,0.1,0,0.2,0,0.2
	l-0.7,2.5h2L120,37.7z M120.1,36.1l1.9,6.4h-0.6l-0.5-1.9h-2.3l-0.5,1.9h-0.6l1.9-6.4H120.1z"/>
<path fill="#4F5059" d="M123.1,38.6c-0.1,0.3-0.2,0.8-0.2,1.4c0,1.4,0.3,2,1,2c0.7,0,1.1-0.6,1.1-2c0-0.7-0.1-1.3-0.3-1.5
	c-0.2-0.2-0.5-0.4-0.7-0.4C123.6,38.1,123.3,38.3,123.1,38.6 M123,43c0.1,0.5,0.3,0.7,0.9,0.7c0.4,0,0.7-0.2,0.9-0.5
	c0.1-0.1,0.2-0.5,0.2-0.8v-0.3c0-0.1,0-0.3,0-0.5c-0.3,0.6-0.6,0.9-1.2,0.9c-1,0-1.4-0.8-1.4-2.4c0-1.6,0.5-2.5,1.5-2.5
	c0.6,0,0.9,0.3,1.2,0.9c0-0.2,0-0.3,0-0.5v-0.2h0.5v4c0,0.9,0,1.1-0.1,1.5c-0.2,0.6-0.7,1-1.5,1c-0.9,0-1.3-0.4-1.4-1.2H123z"/>
<path fill="#4F5059" d="M129,39.7c0-1.1-0.3-1.7-1-1.7c-0.5,0-0.8,0.3-1,0.8c-0.1,0.2-0.1,0.6-0.1,0.9H129z M126.9,40.2
	c0,0.8,0.1,1,0.2,1.3c0.1,0.4,0.5,0.6,0.9,0.6c0.6,0,0.9-0.4,1-1.2h0.5c0,0.2-0.1,0.6-0.2,0.8c-0.2,0.5-0.7,0.9-1.4,0.9
	c-1.1,0-1.6-0.8-1.6-2.5c0-1.7,0.6-2.5,1.7-2.5c1,0,1.5,0.7,1.5,2.3c0,0,0,0.1,0,0.2h-2.6V40.2z"/>
<path fill="#4F5059" d="M131,38c0,0.3,0,0.3,0,0.5c0.3-0.6,0.7-0.9,1.3-0.9c0.5,0,0.9,0.3,1.1,0.7c0.1,0.2,0.1,0.4,0.1,1v3.2h-0.6
	v-3.1c0-0.5,0-0.7-0.1-0.9c-0.1-0.3-0.4-0.4-0.7-0.4c-0.4,0-0.7,0.2-0.9,0.6c-0.1,0.2-0.2,0.4-0.2,0.8v3.1h-0.6v-4.8h0.5V38z"/>
<path fill="#4F5059" d="M137.4,40.9c0,1.1-0.6,1.7-1.5,1.7c-1.1,0-1.6-0.8-1.6-2.5c0-1.7,0.5-2.5,1.7-2.5c0.9,0,1.4,0.6,1.4,1.5
	h-0.5c0-0.7-0.4-1.1-0.9-1.1c-0.7,0-1.1,0.6-1.1,2c0,1.4,0.3,2.1,1.1,2.1c0.6,0,0.9-0.5,1-1.3H137.4z"/>
<path fill="#4F5059" d="M138.2,37.7l0.9,3.4c0.1,0.4,0.1,0.7,0.2,0.9h0c0-0.3,0.1-0.7,0.2-0.9l0.8-3.4h0.6l-1.2,4.5
	c-0.2,0.8-0.4,1.3-0.5,1.5c-0.2,0.3-0.5,0.5-1,0.5c-0.1,0-0.2,0-0.4,0v-0.5c0.2,0,0.2,0,0.3,0c0.3,0,0.5-0.1,0.7-0.4
	c0-0.1,0.2-0.5,0.2-0.5l0-0.1l-1.4-4.9H138.2z"/>
<path fill="#4F5059" d="M153.8,10.9h0.7c0.5,0,0.7-0.1,0.7-0.4c0-0.3-0.2-0.4-0.6-0.4h-0.8V10.9z M154.6,9.8c0.3,0,0.4,0,0.6,0.1
	c0.2,0.1,0.4,0.3,0.4,0.6c0,0.3-0.1,0.5-0.4,0.6c0.3,0.1,0.3,0.2,0.4,0.8c0,0.2,0,0.3,0.1,0.4l0.1,0.1h-0.5
	c-0.1-0.1-0.1-0.2-0.1-0.3c0-0.7-0.1-0.8-0.6-0.8h-0.7v1.1h-0.4V9.8H154.6z M152.4,11.1c0,1.1,0.9,2.1,2,2.1c1.1,0,2-0.9,2-2.1
	c0-1.1-0.9-2.1-2-2.1C153.3,9,152.4,9.9,152.4,11.1 M156.8,11.1c0,1.3-1.1,2.4-2.4,2.4c-1.3,0-2.4-1.1-2.4-2.4
	c0-1.3,1.1-2.4,2.4-2.4C155.7,8.7,156.8,9.8,156.8,11.1"/>
</svg>
